<svg enable-background="new 0 0 24 24" viewBox="0 0 24 24" xmlns="http://www.w3.org/2000/svg" fill="#ffffff"><path d="m8.5 6h-1.8c1.5-1.3 3.3-2 5.3-2 .3 0 .6 0 .9.1.5.1 1-.3 1.1-.9.1-.5-.3-1-.9-1.1-.4-.1-.7-.1-1.1-.1-2.4 0-4.7.9-6.5 2.4v-1.4c0-.6-.4-1-1-1s-1 .4-1 1v4c0 .6.4 1 1 1h4c.6 0 1-.4 1-1s-.4-1-1-1zm-1.5 8.5c-.6 0-1 .4-1 1v1.8c-1.3-1.5-2-3.3-2-5.3 0-.3 0-.6.1-.9.1-.5-.3-1-.9-1.1-.5-.1-1 .3-1.1.9-.1.4-.1.7-.1 1.1 0 2.4.9 4.7 2.4 6.5h-1.4c-.6 0-1 .4-1 1s.4 1 1 1h4c.3 0 .6-.2.8-.4 0-.1.1-.2.1-.3s0-.1 0-.2v-.1-4c.1-.6-.3-1-.9-1zm14-9c.6 0 1-.4 1-1s-.4-1-1-1h-4c-.1 0-.1 0-.2 0-.1 0-.2.1-.3.1-.1.1-.2.1-.2.2 0 .1-.1.2-.1.2v.2.1 4c0 .6.4 1 1 1s1-.4 1-1v-1.6c1.3 1.4 2 3.3 2 5.3 0 .3 0 .6-.1.9-.1.5.3 1 .9 1.1h.1c.5 0 .9-.4 1-.9 0-.4.1-.7.1-1.1 0-2.4-.9-4.7-2.4-6.5zm-.7 11c-.1-.1-.2-.2-.3-.3-.1-.1-.2-.1-.3-.1h-.1-.1-4c-.6 0-1 .4-1 1s.4 1 1 1h1.8c-1.4 1.3-3.3 2-5.3 2-.3 0-.6 0-.9-.1-.5-.1-1 .3-1.1.9s.3 1 .9 1.1c.4 0 .7.1 1.1.1 2.4 0 4.7-.9 6.5-2.4v1.3c0 .6.4 1 1 1s1-.4 1-1v-4c0-.2-.1-.4-.2-.5z"/></svg>